#!OML:ASF F:\VICON\USERDATA\INSTALL\rory3\rory3.ASF
:FULLY-SPECIFIED
:DEGREES
3328
root -1.18929 17.7907 -3.27965 -145.034 87.1051 -146.613
lowerback 2.54477 -0.0926361 -1.16168
upperback -1.07544 -0.192326 -1.83029
thorax -2.53333 -0.0852682 -1.21934
lowerneck -16.2834 -16.8271 -10.2883
upperneck 6.29204 -22.0264 12.79
head 7.06554 -9.99236 2.86738
rclavicle -2.97556e-015 -6.36111e-015
rhumerus 57.9976 -22.5751 -35.0413
rradius 30.113
rwrist 29.9826
rhand -24.1099 -15.5459
rfingers 7.12502
rthumb 2.3712 -45.5125
lclavicle -2.97556e-015 -6.36111e-015
lhumerus -35.1461 11.2085 68.2703
lradius 29.5255
lwrist -8.94531
lhand -9.45531 29.2695
lfingers 7.12502
lthumb 16.5081 -1021.41
rfemur -17.6516 -7.78559 20.3177
rtibia 36.0174
rfoot -22.2184 -16.1482
rtoes 11.9653
lfemur 0.805781 -11.2455 -9.92394
ltibia 26.4184
lfoot -11.1008 -16.2104
ltoes -9.04922
3329
root -1.15924 17.7894 -3.22768 -140.518 87.1075 -142.041
lowerback 2.49444 -0.0542012 -1.01553
upperback -1.10694 -0.135613 -1.81788
thorax -2.53696 -0.0595195 -1.29124
lowerneck -16.315 -16.816 -10.1033
upperneck 6.29522 -22.0238 12.6435
head 7.03191 -9.9966 2.80104
rclavicle 6.00081e-015 8.74653e-015
rhumerus 57.6563 -22.411 -34.849
rradius 30.3442
rwrist 29.7478
rhand -24.2039 -15.5235
rfingers 7.12502
rthumb 2.28047 -45.4911
lclavicle 6.00081e-015 8.74653e-015
lhumerus -35.2581 11.3455 68.0898
lradius 29.3601
lwrist -9.14616
lhand -9.2315 29.1904
lfingers 7.12502
lthumb 16.7236 -1021.51
rfemur -17.4823 -7.75042 20.7131
rtibia 35.9789
rfoot -22.2761 -16.1044
rtoes 11.6993
lfemur 0.919501 -11.305 -9.53844
ltibia 26.5352
lfoot -10.8152 -16.2812
ltoes -9.43281
3330
root -1.12522 17.7849 -3.17779 -137.471 87.225 -138.918
lowerback 2.41707 -0.00826493 -1.08212
upperback -1.14667 -0.0748042 -1.75682
thorax -2.53315 -0.0277766 -1.19393
lowerneck -16.2437 -16.7901 -10.0364
upperneck 6.23041 -21.9781 12.5028
head 6.96886 -9.99064 2.76762
rclavicle -1.14767e-014 1.98785e-014
rhumerus 57.5384 -22.2154 -34.7133
rradius 30.419
rwrist 29.7571
rhand -24.2013 -15.5714
rfingers 7.12502
rthumb 2.28295 -45.5389
lclavicle -1.14767e-014 1.98785e-014
lhumerus -35.462 11.4573 68.1183
lradius 29.2217
lwrist -9.12405
lhand -9.77261 29.4213
lfingers 7.12502
lthumb 16.2026 -1021.24
rfemur -17.2683 -7.70206 20.9218
rtibia 35.9346
rfoot -22.4921 -15.8852
rtoes 12.0625
lfemur 1.06967 -11.3451 -9.40606
ltibia 26.6944
lfoot -10.788 -16.0833
ltoes -10.8743
3331
root -1.09265 17.7833 -3.12949 -134.112 87.2789 -135.514
lowerback 2.36095 0.00968679 -1.13041
upperback -1.20097 -0.0507868 -1.63737
thorax -2.55687 -0.0144306 -1.04522
lowerneck -16.2932 -16.7755 -10.1052
upperneck 6.30478 -21.9282 12.3653
head 6.98447 -9.97488 2.73864
rclavicle 4.81975e-015 -1.59028e-015
rhumerus 57.5677 -21.9343 -34.5535
rradius 30.4059
rwrist 29.751
rhand -24.2842 -15.57
rfingers 7.12502
rthumb 2.20291 -45.5384
lclavicle 4.81975e-015 -1.59028e-015
lhumerus -35.6664 11.3964 68.2706
lradius 29.1003
lwrist -8.93884
lhand -10.3845 29.718
lfingers 7.12502
lthumb 15.6134 -1020.89
rfemur -17.0792 -7.5718 21.1794
rtibia 35.8789
rfoot -22.6463 -15.8234
rtoes 12.017
lfemur 1.13169 -11.254 -9.21239
ltibia 26.8783
lfoot -10.8391 -16.0104
ltoes -12.9312
3332
root -1.06523 17.7795 -3.08056 -130.669 87.3295 -131.981
lowerback 2.39664 0.0120168 -1.17637
upperback -1.23062 -0.0495659 -1.55426
thorax -2.60729 -0.0125611 -0.934234
lowerneck -16.3648 -16.7462 -10.1523
upperneck 6.40181 -21.8746 12.3018
head 7.01836 -9.94912 2.72668
rclavicle -3.29392e-015 3.26007e-014
rhumerus 57.6641 -21.721 -34.6103
rradius 30.4306
rwrist 29.7532
rhand -24.2207 -15.1629
rfingers 7.12502
rthumb 2.26419 -45.1306
lclavicle -3.29392e-015 3.26007e-014
lhumerus -35.8169 11.3815 68.296
lradius 29.0123
lwrist -8.72998
lhand -10.5222 29.8824
lfingers 7.12502
lthumb 15.4807 -1020.72
rfemur -16.8554 -7.57053 21.4335
rtibia 35.8001
rfoot -22.703 -15.6401
rtoes 11.9954
lfemur 1.21687 -11.2656 -8.99694
ltibia 27.0996
lfoot -10.7191 -16.0102
ltoes -14.1693
